<svg className="w-5 h-5" viewBox="0 0 48 48" fill="none" xmlns="http://www.w3.org/2000/svg">
  <path fill="#EA4335" d="M24 9.5c3.54 0 6.62 1.21 9.05 3.19l6.76-6.76C34.93 2.75 29.78 0 24 0 14.61 0 6.23 5.78 2.44 13.84l7.87 6.12C12.58 13.43 17.74 9.5 24 9.5z" />
  <path fill="#4285F4" d="M46.49 24.5c0-1.58-.14-3.1-.41-4.57H24v8.64h12.69c-.54 2.9-2.23 5.36-4.75 7.04l7.69 6.02c4.5-4.15 7.86-10.23 7.86-17.13z" />
  <path fill="#FBBC05" d="M10.31 28.35a14.33 14.33 0 0 1 0-8.7v-6.12H2.44a24.13 24.13 0 0 0 0 20.96l7.87-6.14z" />
  <path fill="#34A853" d="M24 46.5c6.54 0 12.04-2.17 16.06-5.89l-7.69-6.02c-2.13 1.43-4.85 2.27-8.37 2.27-6.28 0-11.61-4.23-13.54-9.9l-7.87 6.14C6.24 42.33 14.62 48 24 48z" />
</svg>
